<svg version="1.1" id="Layer_1" xmlns="http://www.w3.org/2000/svg" xmlns:xlink="http://www.w3.org/1999/xlink" x="0px" y="0px" viewBox="0 0 200 200" style="enable-background:new 0 0 200 200;" xml:space="preserve">

                                    <path fill="white" d="M10,6v187h146.35v-50.82l-8.13,6.5v36.18H18.13V14.13h130.09v40.65l8.13,5.81V6H10z M52.31,30.39
                                        c-8.86,0.16-9.6,7.03-7.88,13.66c0,0-0.93,0.93-0.88,2.25c0.09,2.49,1.75,3.28,1.75,3.28c0.32,2.31,2.36,4.39,3.09,4.77
                                        c0,1.48,0.15,2.6,0,4.22c-1.75,4.71-13.45,3.39-14,12.48h36.13c-0.54-9.09-12.25-7.77-14.01-12.48c-0.15-1.61,0-2.74,0-4.22
                                        c1.01-0.48,2.67-2.42,3-4.77c0,0,1.74-1.1,1.74-2.95c0-1.28-0.42-2.24-0.77-2.59c0.93-2.81,2.54-11.41-3.63-11.41
                                        C56.2,31.46,54.53,30.39,52.31,30.39z M95.39,38.51c-2.25-0.03-4.09,1.76-4.12,4.01c-0.03,2.25,1.76,4.09,4.01,4.12
                                        c0.04,0,0.08,0,0.11,0h32.52c2.25,0.03,4.09-1.76,4.12-4.01s-1.76-4.09-4.01-4.12c-0.04,0-0.08,0-0.11,0H95.39z M95.39,58.84
                                        c-2.25-0.03-4.09,1.76-4.12,4.01c-0.03,2.25,1.76,4.09,4.01,4.12c0.04,0,0.08,0,0.11,0h32.52c2.25,0.03,4.09-1.76,4.12-4.01
                                        s-1.76-4.09-4.01-4.12c-0.04,0-0.08,0-0.11,0H95.39z M148.22,62.37V87.3h-28.46v28.46h28.46v24.94l47-39.17L148.22,62.37z
                                        M156.35,79.72l26.17,21.81l-26.17,21.81v-15.71h-28.46v-12.2h28.46V79.72z M38.47,99.49c-2.25-0.03-4.09,1.76-4.12,4.01
                                        s1.76,4.09,4.01,4.12c0.04,0,0.08,0,0.11,0h56.91c2.25,0.03,4.09-1.76,4.12-4.01s-1.76-4.09-4.01-4.12c-0.04,0-0.08,0-0.11,0H38.47z
                                        M38.47,123.88c-2.25-0.03-4.09,1.76-4.12,4.01s1.76,4.09,4.01,4.12c0.04,0,0.08,0,0.11,0h44.72c2.25,0.03,4.09-1.76,4.12-4.01
                                        c0.03-2.25-1.76-4.09-4.01-4.12c-0.04,0-0.08,0-0.11,0C83.19,123.88,38.47,123.88,38.47,123.88z M115.71,123.88
                                        c-2.25-0.03-4.09,1.76-4.12,4.01s1.76,4.09,4.01,4.12c0.04,0,0.08,0,0.11,0h12.2c2.25,0.03,4.09-1.76,4.12-4.01
                                        c0.03-2.25-1.76-4.09-4.01-4.12c-0.04,0-0.08,0-0.11,0C127.91,123.88,115.71,123.88,115.71,123.88z M38.47,148.27
                                        c-2.25-0.03-4.09,1.76-4.12,4.01s1.76,4.09,4.01,4.12c0.04,0,0.08,0,0.11,0h56.91c2.25,0.03,4.09-1.76,4.12-4.01
                                        s-1.76-4.09-4.01-4.12c-0.04,0-0.08,0-0.11,0H38.47z M115.71,148.27c-2.25-0.03-4.09,1.76-4.12,4.01s1.76,4.09,4.01,4.12
                                        c0.04,0,0.08,0,0.11,0h12.2c2.25,0.03,4.09-1.76,4.12-4.01s-1.76-4.09-4.01-4.12c-0.04,0-0.08,0-0.11,0H115.71z"></path>
                                </svg>