<svg version="1.1" id="Layer_1" xmlns="http://www.w3.org/2000/svg" xmlns:xlink="http://www.w3.org/1999/xlink" x="0px" y="0px" viewBox="0 0 200 200" style="enable-background:new 0 0 200 200;" xml:space="preserve">
<path fill="white" opacity="0.3" d="M85.44,13.05h88.5c6.11,0,11.06,4.95,11.06,11.06v154.87c0,6.11-4.95,11.06-11.06,11.06h-88.5
c-6.11,0-11.06-4.95-11.06-11.06V24.11C74.37,18,79.33,13.05,85.44,13.05z M107.56,112.61c6.11,0,11.06-4.95,11.06-11.06
c0-6.11-4.95-11.06-11.06-11.06c-6.11,0-11.06,4.95-11.06,11.06C96.5,107.66,101.45,112.61,107.56,112.61z"></path>
<path fill="white" d="M8,101.55l38.72-33.19v22.12h16.59v22.12H46.72v22.13L8,101.55z"></path>
</svg>