<svg version="1.1" id="Layer_1" xmlns="http://www.w3.org/2000/svg" xmlns:xlink="http://www.w3.org/1999/xlink" x="0px" y="0px" viewBox="0 0 200 200" style="enable-background:new 0 0 200 200;" xml:space="preserve">

                                    <g>
                                        <path fill="white" d="M149.1,83.33c4.97,0,9.65,0,14.62,0c0,0.44,0,1.09,0,1.75c0,33.81,0,67.61,0,101.42
                                            c0,5.57-2.89,8.46-8.47,8.46c-46.67,0-93.33-0.03-140,0.04c-4.97,0.01-8.47-3.15-8.46-8.5c0.1-57.2,0.1-114.4,0-171.61
                                            c-0.01-5.59,3.61-8.62,8.55-8.6c39.01,0.08,78.03,0.05,117.04,0.05c0.61,0,1.22,0,2.33,0c-1.28,0.93-2.16,1.56-3.04,2.21
                                            c-4.02,2.98-7.44,6.55-10.07,10.8c-0.77,1.25-1.62,1.62-3.02,1.62c-31.42-0.04-62.85-0.03-94.27-0.03c-0.86,0-1.73,0-2.71,0
                                            c0,53.19,0,106.16,0,159.42c0.76,0,1.49,0,2.22,0c40.96,0,81.91,0,122.87,0c2.41,0,2.42-0.01,2.42-2.51c0-30.73,0-61.47,0-92.2
                                            C149.1,84.84,149.1,84.04,149.1,83.33z"></path>
                                        <path fill="white" d="M156.64,6.64c18.23-0.35,35.14,14.8,35.25,35.04c0.11,20.56-16.85,35.6-35.31,35.63
                                            c-18.02,0.03-35.41-14.29-35.44-35.3C121.1,20.94,138.49,6.23,156.64,6.64z M151.49,43.72c-1.8-1.98-3.3-3.85-5.03-5.47
                                            c-2.19-2.05-5.67-1.89-7.66,0.12c-1.96,1.98-2.17,5.4-0.18,7.51c3.05,3.24,6.2,6.39,9.46,9.42c2.27,2.11,5.24,2.01,7.45-0.17
                                            c6.3-6.21,12.58-12.43,18.74-18.77c2.87-2.95,1.46-7.66-2.47-8.91c-2.32-0.74-4.17,0.07-5.78,1.68
                                            C161.32,33.83,156.64,38.54,151.49,43.72z"></path>
                                        <path opacity="0.3" fill="white" d="M46.97,123.93c1.07-5.1,2.05-9.86,3.06-14.62c0.69-3.24,1.43-6.47,2.1-9.71c0.35-1.7,1.3-2.8,2.92-3.37
                                            c4.66-1.65,9.3-3.36,14-4.89c0.65-0.21,1.82,0.22,2.37,0.75c4.1,3.97,8.11,8.04,12.15,12.07c0.52,0.52,1.09,0.99,1.83,1.66
                                            c2.61-2.64,5.11-5.19,7.62-7.72c2.03-2.05,4.11-4.06,6.11-6.14c0.79-0.82,1.5-1.07,2.64-0.64c4.46,1.67,8.94,3.26,13.44,4.81
                                            c1.87,0.64,2.88,1.91,3.27,3.76c1.56,7.4,3.06,14.81,4.7,22.19c0.35,1.58-0.16,1.87-1.53,1.86c-5.58-0.03-11.16-0.01-16.75-0.01
                                            c-18.44,0-36.88,0-55.32,0C48.78,123.93,47.99,123.93,46.97,123.93z"></path>
                                        <path opacity="0.3" fill="white" d="M85.42,45.47c8.29,0,14.56,4.58,15.88,12.28c0.51,2.98-0.21,6.2-0.58,9.28c-0.27,2.29-0.89,4.53-1.36,6.8
		                                    c-1.46,7.06-7.1,11.9-13.92,11.98c-6.86,0.08-12.66-4.59-14.25-11.6c-0.79-3.47-1.3-7.01-2.08-10.48
		                                    C67.11,54.94,73.99,44.87,85.42,45.47z"></path>
                                        <path opacity="0.3" fill="white" d="M85.35,147.04c12.85,0,25.7-0.01,38.55,0.01c0.92,0,1.91,0.03,2.76,0.33c1.77,0.64,2.99,2.82,2.7,4.51
		                                    c-0.34,2.04-1.97,3.63-4.05,3.89c-0.43,0.06-0.88,0.03-1.32,0.03c-25.89,0-51.78,0-77.67,0c-3.1,0-5.04-1.66-5.09-4.29
		                                    c-0.05-2.63,1.59-4.43,4.24-4.46c4.95-0.06,9.9-0.03,14.86-0.03C68.67,147.04,77.01,147.04,85.35,147.04z"></path>
                                    </g>
                                </svg>