<svg version="1.1" id="Layer_1" xmlns="http://www.w3.org/2000/svg" xmlns:xlink="http://www.w3.org/1999/xlink" x="0px" y="0px" viewBox="0 0 200 200" style="enable-background:new 0 0 200 200;" xml:space="preserve">
                                    <path fill="white" d="M107.52,9h-57.1v19.03h57.1V9z"></path>
                                    <path fill="white" d="M143.6,15.35h-29.74v6.34h25.38c1.75,0,3.17,1.42,3.17,3.17v152.28c0,1.75-1.42,3.17-3.17,3.17H15.52
                                    c-1.75,0-3.17-1.42-3.17-3.17V24.86c0-1.75,1.42-3.17,3.17-3.17h28.55v-6.34H11.15C8.31,15.35,6,17.66,6,20.5v161
                                    c0,2.84,2.31,5.15,5.16,5.15H143.6c2.84,0,5.16-2.31,5.16-5.15v-161C148.76,17.66,146.45,15.35,143.6,15.35z"></path>
                                    <path fill="white" d="M44.07,28.03H18.69v145.93h117.38V28.03h-22.21v3.17c0,1.75-1.42,3.17-3.17,3.17H47.24
                                    c-1.75,0-3.17-1.42-3.17-3.17V28.03z M85.31,132.72H47.24c-1.75,0-3.17-1.42-3.17-3.17s1.42-3.17,3.17-3.17h38.07
                                    c1.75,0,3.17,1.42,3.17,3.17C88.48,131.3,87.06,132.72,85.31,132.72z M107.52,142.24c1.75,0,3.17,1.42,3.17,3.17
                                    s-1.42,3.17-3.17,3.17H69.45c-1.75,0-3.17-1.42-3.17-3.17s1.42-3.17,3.17-3.17H107.52z M28.21,126.38h6.34
                                    c1.75,0,3.17,1.42,3.17,3.17c0,1.75-1.42,3.17-3.17,3.17h-6.34c-1.75,0-3.17-1.42-3.17-3.17C25.03,127.8,26.46,126.38,28.21,126.38z
                                    M28.21,142.24h28.55c1.75,0,3.17,1.42,3.17,3.17s-1.42,3.17-3.17,3.17H28.21c-1.75,0-3.17-1.42-3.17-3.17
                                    C25.03,143.66,26.46,142.24,28.21,142.24z M34.55,164.45h-6.34c-1.75,0-3.17-1.42-3.17-3.17s1.42-3.17,3.17-3.17h6.34
                                    c1.75,0,3.17,1.42,3.17,3.17S36.3,164.45,34.55,164.45z M85.31,164.45H47.24c-1.75,0-3.17-1.42-3.17-3.17s1.42-3.17,3.17-3.17h38.07
                                    c1.75,0,3.17,1.42,3.17,3.17C88.48,163.03,87.06,164.45,85.31,164.45z M126.55,164.45H98c-1.75,0-3.17-1.42-3.17-3.17
                                    s1.42-3.17,3.17-3.17h28.55c1.75,0,3.17,1.42,3.17,3.17C129.73,163.03,128.3,164.45,126.55,164.45z M126.55,148.6h-6.35
                                    c-1.75,0-3.17-1.42-3.17-3.17s1.42-3.17,3.17-3.17h6.35c1.75,0,3.17,1.42,3.17,3.17C129.73,147.18,128.3,148.6,126.55,148.6z
                                    M126.55,126.38c1.75,0,3.17,1.42,3.17,3.17c0,1.75-1.42,3.17-3.17,3.17H98c-1.75,0-3.17-1.42-3.17-3.17s1.42-3.17,3.17-3.17
                                    C98,126.38,126.55,126.38,126.55,126.38z M78.97,43.89c19.24,0,34.9,15.66,34.9,34.9s-15.66,34.9-34.9,34.9s-34.9-15.66-34.9-34.9
                                    S59.72,43.89,78.97,43.89z"></path>
                                    <path fill="white" d="M164.61,75.62h25.38v19.03h-25.38V75.62z" opacity="0.3"></path>
                                    <path fill="white" d="M164.61,101h25.38v44.41h-25.38V101z" opacity="0.3"></path>
                                    <path fill="white" d="M181.96,9h-9.32c-4.43,0-8.03,3.6-8.03,8.03v52.25h25.38V17.03C189.99,12.6,186.39,9,181.96,9z"></path>
                                    <path fill="white" d="M164.61,167.62c0,0.69,0.22,1.35,0.63,1.9l8.88,11.84v8.46c0,1.75,1.42,3.17,3.17,3.17s3.17-1.42,3.17-3.17
                                    v-8.46l8.88-11.84c0.41-0.55,0.63-1.22,0.63-1.9v-15.86h-25.38v15.86H164.61z"></path>
                                    <g>
                                        <path fill="white" d="M97.17,74.47c-1.38-1.81-3.22-2.58-5.46-2.32c-0.84,0.1-1.66,0.38-2.62,0.61v-3.5c0-2.77,0-2.75-2.81-2.69
                                        c-0.93,0.02-1.37,0.37-1.37,1.33c-0.01,5.89-0.05,11.77-0.04,17.66c0,0.37,0.37,1.04,0.62,1.07c0.91,0.1,1.85-0.01,2.77-0.05
                                        c0.41-0.02,0.86-0.18,1.2-0.05c2.51,1.02,5.33,0.48,7.16-1.46C99.09,82.47,99.35,77.34,97.17,74.47z M93.81,82.09
                                        c-0.53,1.04-1.52,1.33-2.6,1.16c-1.18-0.18-1.86-0.97-2.07-2.11c-0.09-0.49-0.01-1.02-0.01-1.52c-0.07-0.01-0.14-0.03-0.21-0.04
                                        c0.21-0.82,0.28-1.71,0.66-2.44c0.91-1.76,3.37-1.75,4.29,0C94.72,78.76,94.65,80.46,93.81,82.09z M82.29,74.43
                                        c-2.01-2.3-4.59-2.8-7.4-2.02c-2.81,0.78-4.37,2.85-4.84,5.66c-0.51,3.06,0.12,5.85,2.78,7.74c2.31,1.64,4.87,1.66,7.37,0.42
                                        c2.72-1.35,3.72-3.78,3.82-6.48C84,77.66,83.56,75.89,82.29,74.43z M76.88,83.38c-1.25-0.03-2.37-0.92-2.54-2.49
                                        c-0.13-1.23,0.1-2.55,0.42-3.76c0.27-0.98,1.2-1.39,2.24-1.38c1,0.01,1.76,0.47,2.14,1.38l0.4,3.87
                                        C79.1,82.58,78.16,83.41,76.88,83.38z M69.09,75C69.08,75,69.08,75,69.09,75v-5.53c0-1.92-0.05-1.96-2-1.96h-0.47
                                        c-1.51,0.01-1.71,0.2-1.71,1.69c-0.01,3.57,0.01,7.14-0.01,10.7c-0.01,3.06-0.64,3.54-3.69,3.09c-0.39-0.06-1.06,0.21-1.22,0.53
                                        c-1.09,2.11-0.53,3.13,1.82,3.42c0.69,0.09,1.41,0.1,2.11,0.02c2.64-0.3,4.21-1.65,4.86-4.23c0.21-0.83,0.28-1.7,0.31-2.56
                                        C69.12,78.46,69.09,76.73,69.09,75z"></path>
                                        <path fill="white" d="M97.17,74.47c-1.38-1.81-3.22-2.58-5.46-2.32c-0.84,0.1-1.66,0.38-2.62,0.61v-3.5c0-2.77,0-2.75-2.81-2.69
                                        c-0.93,0.02-1.37,0.37-1.37,1.33c-0.01,5.89-0.05,11.77-0.04,17.66c0,0.37,0.37,1.04,0.62,1.07c0.91,0.1,1.85-0.01,2.77-0.05
                                        c0.41-0.02,0.86-0.18,1.2-0.05c2.51,1.02,5.33,0.48,7.16-1.46C99.09,82.47,99.35,77.34,97.17,74.47z M93.81,82.09
                                        c-0.53,1.04-1.52,1.33-2.6,1.16c-1.18-0.18-1.86-0.97-2.07-2.11c-0.09-0.49-0.01-1.02-0.01-1.52c-0.07-0.01-0.14-0.03-0.21-0.04
                                        c0.21-0.82,0.28-1.71,0.66-2.44c0.91-1.76,3.37-1.75,4.29,0C94.72,78.76,94.65,80.46,93.81,82.09z"></path>
                                        <path fill="white" d="M82.29,74.43c-2.01-2.3-4.59-2.8-7.4-2.02c-2.81,0.78-4.37,2.85-4.84,5.66c-0.51,3.06,0.12,5.85,2.78,7.74
                                        c2.31,1.64,4.87,1.66,7.37,0.42c2.72-1.35,3.72-3.78,3.82-6.48C84,77.66,83.56,75.89,82.29,74.43z M76.88,83.38
                                        c-1.25-0.03-2.37-0.92-2.54-2.49c-0.13-1.23,0.1-2.55,0.42-3.76c0.27-0.98,1.2-1.39,2.24-1.38c1,0.01,1.76,0.47,2.14,1.38l0.4,3.87
                                        C79.1,82.58,78.16,83.41,76.88,83.38z"></path>
                                        <path fill="white" d="M69.09,75.01c0,1.73,0.03,3.45-0.01,5.18c-0.02,0.86-0.1,1.73-0.31,2.56c-0.66,2.58-2.22,3.93-4.86,4.23
                                        c-0.69,0.08-1.41,0.06-2.11-0.02c-2.35-0.29-2.91-1.31-1.82-3.42c0.16-0.31,0.84-0.58,1.22-0.53c3.05,0.45,3.68-0.03,3.69-3.09
                                        c0.02-3.57,0-7.14,0.01-10.7c0-1.49,0.19-1.67,1.71-1.69c0.16,0,0.31,0,0.47,0c1.95,0,2,0.05,2,1.96
                                        C69.08,71.32,69.08,73.16,69.09,75.01C69.08,75.01,69.08,75.01,69.09,75.01z"></path>
                                    </g>

                                </svg>