<svg width="22" height="22" viewBox="0 0 22 22" fill="none" xmlns="http://www.w3.org/2000/svg">
<path d="M10.9997 16.6834C11.9721 16.6834 12.9048 16.2971 13.5924 15.6095C14.28 14.9218 14.6663 13.9892 14.6663 13.0167C14.6663 12.0443 14.28 11.1116 13.5924 10.424C12.9048 9.73638 11.9721 9.35007 10.9997 9.35007C10.0272 9.35007 9.09458 9.73638 8.40695 10.424C7.71932 11.1116 7.33301 12.0443 7.33301 13.0167C7.33301 13.9892 7.71932 14.9218 8.40695 15.6095C9.09458 16.2971 10.0272 16.6834 10.9997 16.6834V16.6834Z" stroke="white" stroke-width="1.67949" stroke-miterlimit="10" stroke-linecap="round" stroke-linejoin="round"/>
<path d="M9.56982 13.1082L10.1657 13.7041C10.3398 13.8782 10.624 13.8782 10.7982 13.7132L12.4298 12.2099" stroke="white" stroke-width="1.67949" stroke-linecap="round" stroke-linejoin="round"/>
<path d="M7.33309 5.49999V4.76666C7.33309 3.14416 7.33309 1.83332 10.2664 1.83332H11.7331C14.6664 1.83332 14.6664 3.14416 14.6664 4.76666V5.49999M7.33309 20.1667H14.6664C18.3514 20.1667 19.0114 18.6908 19.2039 16.8942L19.8914 9.56082C20.1389 7.32416 19.4973 5.49999 15.5831 5.49999H6.41643C2.50226 5.49999 1.86059 7.32416 2.10809 9.56082L2.79559 16.8942C2.98809 18.6908 3.64809 20.1667 7.33309 20.1667Z" stroke="white" stroke-width="1.67949" stroke-miterlimit="10" stroke-linecap="round" stroke-linejoin="round"/>
<path d="M19.846 10.0834C18.2938 11.2142 16.5386 12.0357 14.676 12.5034M2.40186 10.3309C3.93269 11.3759 5.60102 12.1184 7.33352 12.5401" stroke="white" stroke-width="1.67949" stroke-miterlimit="10" stroke-linecap="round" stroke-linejoin="round"/>
</svg>
