<svg version="1.1" id="Layer_1" xmlns="http://www.w3.org/2000/svg" xmlns:xlink="http://www.w3.org/1999/xlink" x="0px" y="0px" viewBox="0 0 200 200" style="enable-background:new 0 0 200 200;" xml:space="preserve">

                                    <g>
                                        <path fill="#0eb682" d="M99.63,196c-14.82-0.15-29.51-1.41-43.86-5.35c-7.68-2.11-15.1-4.87-21.59-9.65c-4.61-3.4-8.4-7.55-9.08-13.46
                                                c-0.4-3.51-0.22-7.15,0.22-10.67c3-24.09,14.88-42.59,35.32-55.64c1.16-0.74,1.92-0.82,3.13,0.11
                                                c12.39,9.47,26.43,13.43,41.92,11.9c11.03-1.09,20.98-5.16,29.74-11.99c1.06-0.83,1.77-0.8,2.84-0.13
                                                c17.83,11.21,29.35,26.99,34.09,47.52c1.04,4.51,1.37,9.21,1.83,13.84c0.76,7.68-2.71,13.43-8.58,17.98
                                                c-5.89,4.56-12.65,7.32-19.7,9.44C130.82,194.43,115.3,195.81,99.63,196z"></path>
                                        <path fill="#0eb682" opacity="0.3" d="M99.51,5.44c27.23-0.02,49.35,22.12,49.34,49.38c0,27.34-21.97,49.33-49.3,49.35
		                                    c-27.31,0.02-49.32-21.98-49.34-49.31C50.19,27.59,72.27,5.46,99.51,5.44z"></path>
                                    </g>
                                </svg>