<svg version="1.1" id="Layer_1" xmlns="http://www.w3.org/2000/svg" xmlns:xlink="http://www.w3.org/1999/xlink" x="0px" y="0px" viewBox="0 0 200 200" style="enable-background:new 0 0 200 200;" xml:space="preserve">

                                    <g>
                                        <path fill="white" d="M155.86,194c-39.13,0-78.26,0-117.39,0c-0.15-0.09-0.29-0.25-0.46-0.28c-9.62-1.76-15.5-10.12-15.47-19.39
                                                c0.12-43.28,0.05-86.57,0.06-129.86c0-11.61,7.95-19.53,19.58-19.54c4.67,0,9.35,0,14.02,0c0.59,0,1.18,0,1.75,0
                                                c0.41-6.53,2.91-8.86,9.24-8.86c4.73,0,9.47-0.03,14.2,0.02c1.09,0.01,1.64-0.28,1.98-1.37c0.83-2.65,2.37-4.97,4.67-6.45
                                                c2.12-1.37,4.59-2.2,6.9-3.27c1.48,0,2.95,0,4.43,0c0.15,0.09,0.3,0.24,0.46,0.28c5.56,1.19,9.34,4.45,11.25,9.79
                                                c0.38,1.06,1.04,1.01,1.84,1.01c4.8-0.01,9.59,0,14.39,0c6.07,0,8.66,2.43,9.01,8.44c0.01,0.1,0.11,0.19,0.26,0.42
                                                c5.38,0,10.85-0.2,16.3,0.08c2.81,0.15,5.81,0.69,8.33,1.9c7.09,3.4,10.5,9.38,10.5,17.2c0.03,43.59,0.01,87.18,0.01,130.77
                                                c0,0.55,0.02,1.11-0.03,1.66c-0.46,5.18-2.56,9.52-6.49,12.99C162.5,191.93,159.2,192.98,155.86,194z M58.04,32.5
                                                c-0.35-0.1-0.46-0.16-0.58-0.16c-5.29-0.01-10.58-0.05-15.87-0.01C34.7,32.38,30,37.06,29.99,43.96
                                                c-0.02,43.68-0.02,87.35,0,131.03c0,6.9,4.72,11.61,11.62,11.61c37.03,0.02,74.07,0.02,111.1,0c6.9,0,11.62-4.7,11.63-11.6
                                                c0.02-43.68,0.02-87.35,0-131.03c0-6.99-4.72-11.61-11.77-11.65c-4.92-0.03-9.84-0.01-14.76,0c-0.47,0-0.94,0.07-1.52,0.12
                                                c0,1.15,0,2.18,0,3.22c-0.02,5.52-2.92,8.46-8.39,8.46c-8.43,0.01-16.86,0-25.28,0c-12.12,0-24.24,0.01-36.36,0
                                                c-5.25-0.01-8.19-2.99-8.22-8.26C58.03,34.77,58.04,33.67,58.04,32.5z M65.51,36.61c21.19,0,42.24,0,63.3,0c0-4.42,0-8.7,0-13.15
                                                c-0.75,0-1.41,0-2.07,0c-5.9,0-11.81,0.01-17.71-0.01c-2.89-0.01-4.17-1.19-4.5-4c-0.49-4.2-3.47-7.05-7.37-7.05
                                                s-6.87,2.85-7.36,7.06c-0.33,2.81-1.62,3.98-4.51,4c-4.86,0.02-9.72,0.01-14.58,0.01c-1.71,0-3.41,0-5.21,0
                                                C65.51,27.91,65.51,32.2,65.51,36.61z"></path>
                                        <path fill="white" opacity="0.3" d="M43.59,125.98c0.29-1.67,0.77-3.83,0.99-6.02c0.08-0.77-0.24-1.8-0.74-2.38c-1.28-1.48-2.77-2.78-4.18-4.16
                                                c-1.16-1.15-1.84-2.44-1.28-4.14c0.55-1.68,1.84-2.38,3.46-2.63c1.94-0.3,3.91-0.46,5.82-0.9c0.75-0.17,1.58-0.8,1.98-1.46
                                                c0.96-1.56,1.7-3.26,2.49-4.92c0.76-1.61,1.84-2.8,3.75-2.78c1.82,0.02,2.87,1.16,3.61,2.71c0.82,1.72,1.6,3.46,2.56,5.09
                                                c0.37,0.62,1.16,1.21,1.86,1.36c1.97,0.44,4,0.63,6,0.94c1.64,0.25,2.87,1.02,3.39,2.7c0.5,1.62-0.15,2.88-1.27,3.97
                                                c-1.4,1.38-2.77,2.8-4.24,4.1c-0.85,0.76-1.01,1.54-0.79,2.61c0.4,1.92,0.71,3.86,1.01,5.8c0.24,1.55-0.05,2.95-1.44,3.91
                                                c-1.43,0.99-2.85,0.83-4.33,0.04c-2.16-1.14-4.37-3.03-6.56-3.03c-2.12-0.01-4.23,2-6.38,3.05
                                                C46.26,131.35,43.49,129.72,43.59,125.98z M50.05,113.03c2.29,1.85,3.07,4.02,2.09,6.91c2.5-1.73,4.85-1.75,7.31-0.01
                                                c-0.95-2.94-0.07-5.13,2.24-6.98c-3.15,0.1-4.83-1.49-5.88-4.15C54.76,111.59,53,112.96,50.05,113.03z"></path>
                                        <path fill="white" opacity="0.3" d="M43.59,165.85c0.29-1.67,0.77-3.83,0.99-6.02c0.08-0.77-0.23-1.8-0.74-2.38c-1.28-1.48-2.77-2.78-4.18-4.16
                                                c-1.16-1.15-1.84-2.44-1.28-4.14c0.55-1.68,1.84-2.38,3.45-2.63c1.94-0.3,3.91-0.46,5.82-0.9c0.75-0.17,1.58-0.8,1.99-1.46
                                                c0.93-1.51,1.67-3.14,2.41-4.76c0.77-1.67,1.82-2.97,3.83-2.95c1.91,0.02,2.94,1.26,3.69,2.87s1.62,3.17,2.34,4.8
                                                c0.44,1.01,1.03,1.5,2.18,1.6c1.95,0.16,3.89,0.54,5.83,0.84c1.64,0.25,2.88,1.02,3.39,2.7c0.5,1.62-0.15,2.88-1.26,3.98
                                                c-1.4,1.38-2.77,2.8-4.24,4.1c-0.85,0.76-1.02,1.54-0.8,2.61c0.4,1.92,0.71,3.86,1.01,5.8c0.24,1.55-0.05,2.95-1.44,3.92
                                                c-1.43,0.99-2.85,0.83-4.33,0.05c-2.16-1.14-4.37-3.03-6.56-3.04c-2.12-0.01-4.23,1.99-6.38,3.05
                                                C46.26,171.22,43.49,169.59,43.59,165.85z M51.99,159.67c3.82-1.14,3.82-1.14,7.33-0.11c0-1.2-0.28-2.5,0.08-3.59
                                                c0.37-1.14,1.35-2.08,2.2-3.29c-3,0.19-4.73-1.33-5.78-4c-1.01,2.86-2.93,4.09-5.81,4.24C52.35,154.74,53.12,156.91,51.99,159.67z"></path>
                                        <path fill="white" opacity="0.3" d="M123.53,68.49c-8.3,0-16.61,0-24.91-0.01c-0.73,0-1.49,0-2.2-0.15c-1.74-0.37-2.93-1.89-2.92-3.56
                                                c0.01-1.68,1.22-3.16,2.97-3.52c0.65-0.14,1.34-0.14,2.02-0.14c16.86-0.01,33.71-0.01,50.57,0c0.67,0,1.36,0.01,2.01,0.15
                                                c1.73,0.38,2.93,1.89,2.92,3.56c-0.01,1.68-1.22,3.16-2.97,3.52c-0.65,0.14-1.34,0.13-2.02,0.13
                                                C140.51,68.49,132.02,68.49,123.53,68.49z"></path>
                                        <path fill="white" opacity="0.3" d="M123.74,100.98c8.37,0,16.73,0,25.1,0c0.61,0,1.24-0.03,1.84,0.06c1.93,0.28,3.3,1.82,3.3,3.62
                                                s-1.37,3.34-3.3,3.63c-0.6,0.09-1.23,0.06-1.84,0.06c-16.73,0-33.46,0-50.2,0c-0.12,0-0.25,0-0.37,0
                                                c-2.99-0.02-4.77-1.39-4.77-3.69s1.78-3.69,4.77-3.69C106.77,100.97,115.25,100.98,123.74,100.98z"></path>
                                        <path fill="white" opacity="0.3" d="M123.93,140.84c8.3,0,16.61,0,24.91,0c0.61,0,1.24-0.03,1.84,0.06c1.92,0.28,3.3,1.82,3.3,3.63
		                                    c0,1.8-1.38,3.34-3.3,3.62c-0.6,0.09-1.23,0.06-1.84,0.06c-16.73,0-33.46,0-50.2,0c-0.12,0-0.25,0-0.37,0
		                                    c-2.99-0.02-4.77-1.4-4.77-3.69c0-2.3,1.78-3.68,4.77-3.69C106.83,140.84,115.38,140.84,123.93,140.84z"></path>
                                        <path fill="white" opacity="0.3" d="M115.92,86.21c-6.09,0-12.17,0.04-18.26-0.02c-3.11-0.03-4.99-2.64-3.8-5.16c0.77-1.64,2.19-2.21,3.93-2.21
		                                    c4.98,0.01,9.96,0,14.94,0c7.13,0,14.26-0.02,21.4,0.01c3.24,0.01,5.2,2.58,3.99,5.17c-0.81,1.72-2.32,2.22-4.11,2.21
		                                    C127.97,86.2,121.94,86.21,115.92,86.21z"></path>
                                        <path fill="white" opacity="0.3" d="M115.99,118.7c6.09,0,12.17-0.03,18.26,0.01c3.2,0.02,5.11,2.71,3.81,5.28c-0.86,1.7-2.41,2.1-4.19,2.1
		                                    c-9.9-0.02-19.8-0.01-29.7-0.01c-2.15,0-4.3,0.03-6.46-0.01c-2.53-0.05-4.21-1.55-4.21-3.69s1.69-3.66,4.22-3.67
		                                    C103.81,118.67,109.9,118.7,115.99,118.7z"></path>
                                        <path fill="white" opacity="0.3" d="M115.95,165.95c-5.84,0-11.68,0.01-17.52-0.01c-0.73,0-1.49-0.02-2.19-0.2c-1.64-0.41-2.75-1.9-2.74-3.51
		                                    c0.02-1.62,1.14-3.06,2.79-3.47c0.65-0.16,1.34-0.18,2.01-0.18c11.8-0.01,23.61-0.01,35.41,0c0.61,0,1.24,0.02,1.83,0.15
		                                    c1.73,0.39,2.93,1.9,2.92,3.57c-0.02,1.67-1.23,3.16-2.97,3.52c-0.65,0.14-1.34,0.13-2.02,0.13
		                                    C127.63,165.95,121.79,165.95,115.95,165.95z"></path>
                                        <path fill="white" opacity="0.3" d="M52.56,76.17c5.04-5.05,9.76-9.79,14.49-14.53c0.43-0.43,0.85-0.89,1.32-1.29c1.76-1.5,3.87-1.53,5.3-0.09
		                                    c1.42,1.44,1.48,3.65-0.14,5.29c-5.99,6.08-12.03,12.12-18.11,18.11c-1.68,1.65-3.72,1.64-5.42,0.03c-2.5-2.36-4.94-4.79-7.29-7.3
                                            c-1.57-1.67-1.47-3.88,0-5.28c1.42-1.35,3.48-1.34,5.16,0.09c0.84,0.72,1.6,1.52,2.36,2.33C50.98,74.34,51.69,75.19,52.56,76.17z"></path>
                                        <path fill="white" d="M150.26,86.18c-1.93-0.04-3.64-1.81-3.6-3.72c0.04-1.93,1.82-3.64,3.73-3.6c1.93,0.04,3.64,1.81,3.6,3.72
		                                    C153.94,84.51,152.18,86.22,150.26,86.18z"></path>
                                        <path fill="white" opacity="0.3" d="M150.32,118.73c1.92,0,3.66,1.74,3.66,3.66c0,1.92-1.74,3.66-3.66,3.66c-1.91,0-3.66-1.75-3.66-3.66
		                                    S148.41,118.73,150.32,118.73z"></path>
                                        <path fill="white" opacity="0.3" d="M153.98,162.2c0.03,1.91-1.68,3.68-3.61,3.71c-1.91,0.03-3.68-1.69-3.71-3.61c-0.03-1.91,1.69-3.68,3.61-3.71
		                                    C152.19,158.56,153.95,160.28,153.98,162.2z"></path>
                                        <path fill="white" opacity="0.3" d="M97.15,32.29c-1.93-0.01-3.65-1.75-3.64-3.68s1.75-3.65,3.67-3.65c1.91,0.01,3.66,1.77,3.65,3.68
		                                    S99.06,32.3,97.15,32.29z"></path>
                                    </g>
                                </svg>